Patient4_TMGait_0pt4_03_right_04_GRF.mot
version=1
nRows=32
nColumns=19
inDegrees=no
endheader
time	F1x	F1y	F1z	M1x	M1y	M1z	F2x	F2y	F2z	M2x	M2y	M2z	EC1x	EC1y	EC1z	EC2x	EC2y	EC2z
4.17	0.85794	754.9425	62.7264	-245.7451	-62.6423	785.8864	18.0194	12.0907	-3.934	3.1436	-0.9789	14.6723	-0.0592	0.0182	-0.0073	-0.0462	0.0165	0.9585
4.1831	-0.94951	741.147	64.713	-241.2285	-63.5989	766.6815	11.882	8.6728	-2.8103	2.3525	-0.41184	10.5099	-0.0592	0.0182	-0.0073	-0.0462	0.0165	0.9585
4.1961	-1.684	726.733	65.9816	-236.4479	-63.6439	746.7227	6.7441	5.81	-1.8371	1.6885	0.03795	7.0056	-0.0592	0.0182	-0.0073	-0.0462	0.0165	0.9585
4.2092	-1.1861	713.3089	66.5147	-231.9491	-62.7888	727.8463	2.8807	3.6645	-1.0767	1.1897	0.35326	4.3596	-0.0592	0.0182	-0.0073	-0.0462	0.0165	0.9585
4.2223	0.48631	702.3505	66.442	-228.2489	-61.1924	711.6081	0.22865	2.2254	-0.53674	0.85274	0.55591	2.5794	-0.0592	0.0182	-0.0073	-0.0462	0.0165	0.9585
4.2354	3.1494	694.9405	65.9418	-225.7335	-59.0624	699.1009	-1.3907	1.361	-0.18846	0.64591	0.66447	1.5038	-0.0592	0.0182	-0.0073	-0.0462	0.0165	0.9585
4.2484	6.5739	691.6331	65.2012	-224.6007	-56.6084	690.8523	-2.2433	0.91634	-0.00011031	0.53033	0.71712	0.95553	-0.0592	0.0182	-0.0073	-0.0462	0.0165	0.9585
4.2615	10.5224	692.4392	64.3936	-224.852	-54.0276	686.8447	-2.5729	0.6967	0.072346	0.45565	0.73839	0.69584	-0.0592	0.0182	-0.0073	-0.0462	0.0165	0.9585
4.2746	14.7485	696.8854	63.6681	-226.3143	-51.501	686.5968	-2.6005	0.52603	0.058921	0.37221	0.7614	0.51676	-0.0592	0.0182	-0.0073	-0.0462	0.0165	0.9585
4.2876	19.0517	704.1622	63.1388	-228.6986	-49.177	689.3071	-2.483	0.25139	-0.007155	0.23269	0.80033	0.23448	-0.0592	0.0182	-0.0073	-0.0462	0.0165	0.9585
4.3007	23.2639	713.2989	62.8766	-231.6616	-47.1637	694.0229	-2.3216	-0.28436	-0.1035	-0.012672	0.86126	-0.34412	-0.0592	0.0182	-0.0073	-0.0462	0.0165	0.9585
4.3138	27.2751	723.3026	62.8997	-234.8553	-45.5136	699.7637	-2.1853	-1.1894	-0.2047	-0.39956	0.93668	-1.34	-0.0592	0.0182	-0.0073	-0.0462	0.0165	0.9585
4.3269	31.0039	733.2854	63.1869	-237.9729	-44.2332	705.6606	-2.0576	-2.5235	-0.29207	-0.94656	1.0012	-2.8307	-0.0592	0.0182	-0.0073	-0.0462	0.0165	0.9585
4.3399	34.4315	742.5404	63.6916	-240.7781	-43.2883	711.0198	-1.9161	-4.2572	-0.33191	-1.64	1.0034	-4.7747	-0.0592	0.0182	-0.0073	-0.0462	0.0165	0.9585
4.353	37.5598	750.5656	64.3537	-243.1103	-42.6221	715.3458	-1.6596	-6.2289	-0.28393	-2.4145	0.86104	-6.9961	-0.0592	0.0182	-0.0073	-0.0462	0.0165	0.9585
4.3661	40.3904	757.0327	65.1092	-244.8669	-42.1719	718.3262	-1.1562	-8.0597	-0.088089	-3.1216	0.45726	-9.0696	-0.0592	0.0182	-0.0073	-0.0462	0.0165	0.9585
4.3791	42.9376	761.6642	65.9062	-245.9606	-41.8804	719.7093	-0.26935	-9.1226	0.3202	-3.5134	-0.33685	-10.2857	-0.0592	0.0182	-0.0073	-0.0462	0.0165	0.9585
4.3922	45.187	764.1543	66.7078	-246.2892	-41.7139	719.249	1.1501	-8.4545	1.0179	-3.2118	-1.6644	-9.5567	-0.0592	0.0182	-0.0073	-0.0462	0.0165	0.9585
4.4053	47.1069	764.1763	67.4849	-245.7416	-41.6559	716.6869	3.2107	-4.7065	2.0653	-1.6935	-3.6303	-5.3527	-0.0592	0.0182	-0.0073	-0.0462	0.0165	0.9585
4.4184	48.6574	761.4993	68.2229	-244.2344	-41.7097	711.8757	5.939	3.7737	3.4997	1.6854	-6.2706	4.1944	-0.0592	0.0182	-0.0073	-0.0462	0.0165	0.9585
4.4314	49.8413	756.0228	68.8928	-241.7314	-41.8577	704.7763	9.1855	18.8495	5.2691	7.6428	-9.4526	21.2133	-0.0592	0.0182	-0.0073	-0.0462	0.0165	0.9585
4.4445	50.6642	747.6935	69.4438	-238.2205	-42.0606	695.3837	12.566	42.2428	7.2013	16.8368	-12.8141	47.6672	-0.0592	0.0182	-0.0073	-0.0462	0.0165	0.9585
4.4576	51.1493	736.402	69.7498	-233.6833	-42.2087	683.6356	15.3	74.9658	8.9179	29.64	-15.6177	84.7299	-0.0592	0.0182	-0.0073	-0.0462	0.0165	0.9585
4.4706	51.3274	721.8659	69.6292	-228.0615	-42.1366	669.2932	16.1614	116.5296	9.8144	45.8304	-16.7124	131.8851	-0.0592	0.0182	-0.0073	-0.0462	0.0165	0.9585
4.4837	51.1994	703.6039	68.8419	-221.2475	-41.6347	651.9175	13.6985	164.0718	9.2057	64.2553	-14.7788	185.9224	-0.0592	0.0182	-0.0073	-0.0462	0.0165	0.9585
4.4968	50.7353	681.0363	67.1693	-213.1174	-40.5175	630.9395	7.4074	212.2548	6.3886	82.8145	-8.9277	240.819	-0.0592	0.0182	-0.0073	-0.0462	0.0165	0.9585
4.5099	49.9125	653.7952	64.475	-203.6203	-38.6646	605.9512	-1.0261	255.5352	1.7257	99.3696	-0.26104	290.1944	-0.0592	0.0182	-0.0073	-0.0462	0.0165	0.9585
4.5229	48.7491	621.8543	60.7982	-192.8088	-36.0893	576.8168	-9.7614	290.0311	-3.9236	112.4761	9.4904	329.4512	-0.0592	0.0182	-0.0073	-0.0462	0.0165	0.9585
4.536	47.2705	585.455	56.3276	-180.7999	-32.9338	543.6441	-17.6664	315.5453	-9.527	122.1174	18.7462	358.1775	-0.0592	0.0182	-0.0073	-0.0462	0.0165	0.9585
4.5491	45.4651	544.9961	51.2855	-167.7357	-29.3825	506.7121	-24.3951	335.1602	-14.3651	129.5146	26.5976	379.844	-0.0592	0.0182	-0.0073	-0.0462	0.0165	0.9585
4.5621	43.33	501.0565	45.8722	-153.7904	-25.6017	466.4926	-29.9894	353.2818	-18.08	136.3817	32.7112	399.4871	-0.0592	0.0182	-0.0073	-0.0462	0.0165	0.9585
4.5752	40.814	454.4478	40.2095	-139.1934	-21.7012	423.7191	-34.4597	374.0171	-20.8177	144.2827	37.3015	421.751	-0.0592	0.0182	-0.0073	-0.0462	0.0165	0.9585
